<?xml version="1.0" encoding="UTF-8"?>
<svg width="381px" height="295px" viewBox="0 0 381 295" version="1.1" xmlns="http://www.w3.org/2000/svg" xmlns:xlink="http://www.w3.org/1999/xlink">
    <!-- Generator: Sketch 55.2 (78181) - https://sketchapp.com -->
    <title>cappuccino</title>
    <desc>Created with Sketch.</desc>
    <g id="Page-1" stroke="none" stroke-width="1" fill="none" fill-rule="evenodd">
        <g id="Artboard" transform="translate(-817.000000, -168.000000)" fill="#000000" fill-rule="nonzero">
            <g id="cappuccino" transform="translate(817.000000, 168.000000)">
                <path d="M377.284,198.05 C388.631,167.411 372.992,133.374 342.353,122.026 C337.822,120.348 333.103,119.231 328.3,118.701 L328.3,113.341 C328.3,108.658 324.503,104.861 319.82,104.861 L304.42,104.861 C301.7,84.341 289.18,56.341 265.38,34.501 C243.138,14.267 214.701,2.157 184.7,0.141 C181.022,-0.142 177.81,2.611 177.528,6.289 C177.426,7.616 177.723,8.943 178.38,10.1 C181.94,18.1 176.54,23.38 166.94,28.02 C158.502,31.741 149.861,34.986 141.06,37.74 C106.9,49.26 65.22,63.5 59.1,104.86 L43.62,104.86 C38.937,104.86 35.14,108.657 35.14,113.34 L35.14,148.46 C35.155,187.273 50.629,224.481 78.14,251.86 C90.42,264.146 104.774,274.167 120.54,281.46 L6.7,281.46 C3,281.46 0,284.46 0,288.16 C0,291.86 3,294.86 6.7,294.86 L357.02,294.86 C360.72,294.86 363.72,291.86 363.72,288.16 C363.72,284.46 360.72,281.46 357.02,281.46 L242.86,281.46 C266.215,270.64 286.344,253.916 301.26,232.94 L301.26,232.98 C331.899,244.329 365.936,228.69 377.284,198.05 Z M328.3,148.461 L328.3,132.181 C353.249,136.213 370.205,159.707 366.173,184.656 C362.141,209.605 338.647,226.561 313.698,222.529 C312.935,222.406 312.176,222.263 311.42,222.101 L308.74,221.421 C321.583,199.253 328.331,174.081 328.3,148.461 Z M145.22,50.421 C154.545,47.498 163.694,44.038 172.62,40.061 C185.9,33.701 194.3,26.061 193.34,14.661 C216.844,18.029 238.794,28.383 256.34,44.381 C274.135,60.271 286.291,81.509 290.98,104.901 L72.7,104.901 C79.06,72.741 115.38,60.461 145.22,50.421 Z M182.06,281.501 L181.34,281.501 C108.049,281.15 48.759,221.753 48.54,148.461 L48.54,118.261 L314.9,118.261 L314.9,148.501 C314.659,221.793 255.351,281.172 182.06,281.501 Z" id="Shape"></path>
            </g>
        </g>
    </g>
</svg>