<?xml version="1.0" encoding="UTF-8"?>
<svg width="316px" height="329px" viewBox="0 0 316 329" version="1.1" xmlns="http://www.w3.org/2000/svg" xmlns:xlink="http://www.w3.org/1999/xlink">
    <!-- Generator: Sketch 55.2 (78181) - https://sketchapp.com -->
    <title>cookie</title>
    <desc>Created with Sketch.</desc>
    <g id="Page-1" stroke="none" stroke-width="1" fill="none" fill-rule="evenodd">
        <g id="Artboard" transform="translate(-817.000000, -583.000000)" fill="#000000" fill-rule="nonzero">
            <g id="cookie" transform="translate(817.000000, 583.000000)">
                <path d="M214.353,253.075 C210.746,249.486 205.867,247.468 200.779,247.461 L200.819,247.501 C195.716,247.499 190.823,249.529 187.219,253.141 C179.708,260.626 179.687,272.783 187.172,280.294 C187.188,280.31 187.203,280.325 187.219,280.341 C194.704,287.852 206.861,287.873 214.372,280.388 C214.388,280.372 214.403,280.357 214.419,280.341 C221.93,272.794 221.901,260.586 214.353,253.075 Z M204.979,270.941 L204.819,270.941 C202.513,273.259 198.765,273.269 196.447,270.964 C194.129,268.658 194.119,264.91 196.424,262.592 C198.729,260.274 202.478,260.264 204.796,262.569 C205.956,263.723 206.587,265.306 206.539,266.941 C206.538,268.423 205.981,269.85 204.979,270.941 Z" id="Shape"></path>
                <path d="M308.059,132.901 L308.059,133.061 L307.699,132.661 C296.627,121.679 278.771,121.679 267.699,132.661 C256.717,143.733 256.717,161.589 267.699,172.661 C278.762,183.665 296.636,183.665 307.699,172.661 C318.645,161.725 318.806,144.033 308.059,132.901 Z M298.179,163.381 C292.295,169.239 282.783,169.239 276.899,163.381 C271.041,157.497 271.041,147.985 276.899,142.101 C282.77,136.225 292.292,136.22 298.169,142.091 C298.172,142.094 298.176,142.098 298.179,142.101 L298.459,142.381 C304.057,148.306 303.933,157.607 298.179,163.381 Z" id="Shape"></path>
                <path d="M293.852,255.109 C293.096,254.433 292.195,253.938 291.219,253.661 L291.219,253.661 L287.219,252.541 L282.179,251.341 C252.419,244.301 250.739,227.341 249.179,211.821 C248.179,201.821 247.219,192.221 241.179,183.821 C228.499,166.621 232.579,153.701 236.699,140.701 C239.882,132.305 241.508,123.4 241.499,114.421 C239.939,78.421 222.859,67.901 202.499,55.341 C190.882,48.869 180.386,40.562 171.419,30.741 C168.941,27.436 166.885,23.835 165.299,20.021 C163.019,15.101 160.939,9.821 158.979,4.741 C158.068,1.737 155.188,-0.227 152.059,0.021 C61.568,6.897 -6.214,85.828 0.662,176.319 C7.538,266.81 86.469,334.592 176.96,327.716 C223.269,324.197 265.926,301.246 294.379,264.541 C296.838,261.791 296.602,257.568 293.852,255.109 Z M231.139,299.341 L231.219,299.341 C156.382,336.089 65.924,305.213 29.175,230.375 C-7.573,155.538 23.304,65.08 98.141,28.332 C113.851,20.618 130.782,15.694 148.179,13.781 C149.819,17.781 151.499,22.101 153.179,25.781 C155.295,30.733 158.052,35.386 161.379,39.621 C171.227,50.522 182.793,59.737 195.619,66.901 C212.699,77.461 227.019,86.301 228.259,115.221 C228.135,122.663 226.714,130.027 224.059,136.981 C218.939,153.101 213.859,169.221 230.539,192.021 C234.539,197.341 235.259,205.141 236.059,213.261 C238.059,233.261 240.059,254.621 277.539,264.061 C264.504,278.715 248.745,290.698 231.139,299.341 Z" id="Shape"></path>
                <path d="M103.179,104.701 L100.779,84.461 C100.348,80.794 97.026,78.17 93.359,78.601 C89.692,79.032 87.068,82.354 87.499,86.021 L89.899,106.261 C90.33,109.928 93.652,112.552 97.319,112.121 C100.986,111.69 103.61,108.368 103.179,104.701 Z" id="Path"></path>
                <path d="M58.819,199.701 L56.419,179.461 C55.988,175.794 52.666,173.17 48.999,173.601 C45.332,174.032 42.708,177.354 43.139,181.021 L45.539,201.261 C45.97,204.928 49.292,207.552 52.959,207.121 C56.626,206.69 59.25,203.368 58.819,199.701 Z" id="Path"></path>
                <path d="M180.619,124.021 L164.139,112.021 C161.146,109.812 156.928,110.448 154.719,113.441 C152.51,116.434 153.146,120.652 156.139,122.861 L172.619,134.861 C175.612,137.07 179.83,136.434 182.039,133.441 C184.248,130.448 183.612,126.23 180.619,124.021 Z" id="Path"></path>
                <path d="M141.835,46.757 C141.83,46.752 141.824,46.746 141.819,46.741 C135.044,39.926 124.027,39.893 117.212,46.668 C117.188,46.692 117.163,46.716 117.139,46.741 C110.324,53.547 110.317,64.59 117.123,71.405 C117.128,71.41 117.134,71.416 117.139,71.421 C123.781,78.088 134.52,78.265 141.379,71.821 L141.819,71.421 C148.634,64.615 148.641,53.572 141.835,46.757 Z M132.379,61.821 L132.379,62.021 C130.824,63.546 128.334,63.546 126.779,62.021 C125.177,60.499 125.112,57.968 126.634,56.366 C126.681,56.316 126.729,56.268 126.779,56.221 L126.579,56.021 C128.181,54.419 130.777,54.419 132.379,56.021 C133.981,57.623 133.981,60.219 132.379,61.821 Z" id="Shape"></path>
                <path d="M247.475,30.677 C247.47,30.672 247.464,30.666 247.459,30.661 C244.186,27.375 239.737,25.532 235.099,25.5409672 C230.475,25.543 226.042,27.385 222.779,30.661 C215.964,37.467 215.957,48.51 222.763,55.325 C222.768,55.33 222.774,55.336 222.779,55.341 C229.421,62.007 240.16,62.185 247.019,55.741 L247.459,55.341 C254.274,48.535 254.281,37.492 247.475,30.677 Z M238.379,46.141 L238.179,45.941 L238.179,46.141 C236.624,47.666 234.134,47.666 232.579,46.141 C231.057,44.539 231.122,42.008 232.724,40.486 C234.326,38.964 236.857,39.029 238.379,40.631 C239.846,42.175 239.846,44.597 238.379,46.141 Z" id="Shape"></path>
                <path d="M145.059,184.701 L145.019,184.701 C136.445,176.136 122.553,176.136 113.979,184.701 C105.544,193.109 105.366,206.715 113.579,215.341 L113.979,215.781 C122.562,224.364 136.477,224.364 145.059,215.781 C153.641,207.198 153.642,193.284 145.059,184.701 Z M135.579,206.301 C132.24,209.553 126.918,209.553 123.579,206.301 L123.299,206.061 C120.134,202.649 120.24,197.344 123.539,194.061 C126.887,190.83 132.191,190.83 135.539,194.061 C138.791,197.4 138.791,202.722 135.539,206.061 L135.579,206.301 Z" id="Shape"></path>
                <path d="M83.732,131.294 C83.708,131.27 83.684,131.245 83.659,131.221 C76.884,124.406 65.867,124.373 59.052,131.148 C59.028,131.172 59.003,131.196 58.979,131.221 C52.164,137.996 52.131,149.013 58.906,155.828 C58.93,155.852 58.954,155.877 58.979,155.901 C65.754,162.716 76.771,162.749 83.586,155.974 C83.61,155.95 83.635,155.926 83.659,155.901 C90.474,149.126 90.507,138.109 83.732,131.294 Z M74.179,146.501 C72.601,148.047 70.069,148.021 68.522,146.443 C66.976,144.865 67.002,142.333 68.58,140.786 C70.158,139.24 72.69,139.266 74.237,140.844 C74.954,141.576 75.363,142.556 75.379,143.581 C75.396,144.678 74.962,145.733 74.179,146.501 Z" id="Shape"></path>
                <path d="M126.659,277.861 L110.179,265.861 C107.186,263.652 102.968,264.288 100.759,267.281 C98.55,270.274 99.186,274.492 102.179,276.701 L118.659,288.701 C121.652,290.91 125.87,290.274 128.079,287.281 C130.288,284.288 129.652,280.07 126.659,277.861 Z" id="Path"></path>
            </g>
        </g>
    </g>
</svg>