<?xml version="1.0" encoding="UTF-8"?>
<svg width="312px" height="368px" viewBox="0 0 312 368" version="1.1" xmlns="http://www.w3.org/2000/svg" xmlns:xlink="http://www.w3.org/1999/xlink">
    <!-- Generator: Sketch 55.2 (78181) - https://sketchapp.com -->
    <title>water-drop</title>
    <desc>Created with Sketch.</desc>
    <g id="Page-1" stroke="none" stroke-width="1" fill="none" fill-rule="evenodd">
        <g id="Artboard" transform="translate(-1681.000000, -97.000000)" fill="#000000" fill-rule="nonzero">
            <g id="water-drop" transform="translate(1681.000000, 96.500000)">
                <path d="M193.016949,35.9073332 C181.68523,23.7180731 171.486683,12.9218714 163.554479,3.8669925 C163.176755,3.17046335 162.421308,2.82219878 162.043584,2.4739342 C157.88862,-0.660446949 151.845036,0.0360821966 148.445521,3.8669925 C140.513317,12.9218714 130.31477,23.7180731 118.983051,35.9073332 C69.1234867,89.1918128 0,163.023902 0,224.666732 C0,264.368893 17.3753027,300.240144 45.7046005,326.359987 C74.0338983,352.131565 112.939467,368.5 156,368.5 C199.060533,368.5 237.966102,352.47983 266.2954,326.359987 C294.624697,300.240144 312,264.368893 312,224.666732 C312,163.023902 242.876513,89.1918128 193.016949,35.9073332 Z M252.697337,313.474198 C227.767554,336.459659 193.772397,350.738507 156,350.738507 C118.227603,350.738507 84.2324455,336.459659 59.3026634,313.822462 C34.7506053,291.185265 19.2639225,259.493189 19.2639225,224.666732 C19.2639225,169.640929 85.7433414,98.5949562 133.714286,47.4000641 C141.646489,38.6934498 149.200969,30.6833646 156,23.021544 C162.799031,30.6833646 170.353511,38.6934498 178.285714,47.0517995 C226.256659,98.2466917 292.736077,168.9444 292.736077,224.318467 C292.736077,259.144924 277.249395,290.488736 252.697337,313.474198 Z" id="Shape"></path>
                <path d="M157.520134,305.050336 C134.010067,305.050336 112.775168,296.325503 97.6073826,282.365772 C82.4395973,268.40604 72.9597315,248.862416 72.9597315,227.224832 C72.9597315,222.338926 68.7885906,218.5 63.4798658,218.5 C58.1711409,218.5 54,222.338926 54,227.224832 C54,253.748322 65.7550336,277.479866 84.3355705,294.92953 C102.536913,311.681208 128.701342,322.5 157.520134,322.5 C162.828859,322.5 167,318.661074 167,313.775168 C167,308.889262 162.828859,305.050336 157.520134,305.050336 Z" id="Path"></path>
            </g>
        </g>
    </g>
</svg>