<?xml version="1.0" encoding="UTF-8"?>
<svg width="381px" height="343px" viewBox="0 0 381 343" version="1.1" xmlns="http://www.w3.org/2000/svg" xmlns:xlink="http://www.w3.org/1999/xlink">
    <!-- Generator: Sketch 55.2 (78181) - https://sketchapp.com -->
    <title>hot-chocolate</title>
    <desc>Created with Sketch.</desc>
    <g id="Page-1" stroke="none" stroke-width="1" fill="none" fill-rule="evenodd">
        <g id="Artboard" transform="translate(-942.000000, -563.000000)">
            <g id="hot-chocolate" transform="translate(942.000000, 563.000000)">
                <g>
                    <g id="hot-coffee-copy" fill="#000000" fill-rule="nonzero">
                        <path d="M127.1,46.5403818 C114.38,28.9403818 127.1,10.5403818 127.1,10.5403818 C129.122,7.45438179 128.259,3.31338179 125.173,1.29238179 C122.165,-0.67761821 118.137,0.0853817904 116.06,3.02038179 C116.06,3.02038179 97.94,28.8603818 116.06,54.1403818 C128.78,71.7403818 116.06,90.1403818 116.06,90.1403818 C113.984,93.1893818 114.772,97.3433818 117.82,99.4203818 C120.869,101.496382 125.023,100.708382 127.1,97.6603818 C127.1,97.6603818 145.22,71.8203818 127.1,46.5403818 Z" id="Path"></path>
                        <path d="M377.186,245.399 C388.448,214.728 372.713,180.735 342.042,169.473 C337.608,167.845 332.994,166.754 328.3,166.223 L328.3,160.903 C328.3,156.22 324.503,152.423 319.82,152.423 L43.82,152.423 C39.137,152.423 35.34,156.22 35.34,160.903 L35.34,196.023 C35.302,234.807 50.702,272.012 78.14,299.423 C90.42,311.709 104.774,321.73 120.54,329.023 L6.7,329.023 C3,329.023 0,332.023 0,335.723 C0,339.423 3,342.423 6.7,342.423 L357.02,342.423 C360.72,342.423 363.72,339.423 363.72,335.723 C363.72,332.023 360.72,329.023 357.02,329.023 L242.86,329.023 C266.215,318.203 286.344,301.479 301.26,280.503 L301.26,280.543 C331.931,291.805 365.924,276.07 377.186,245.399 Z M328.3,196.023 L328.3,179.743 C353.249,183.775 370.205,207.269 366.173,232.218 C362.141,257.167 338.647,274.123 313.698,270.091 C312.935,269.968 312.176,269.825 311.42,269.663 L308.74,268.983 C321.583,246.815 328.331,221.643 328.3,196.023 Z M181.86,329.063 L181.9,329.023 L181.58,329.023 C108.211,328.803 48.782,269.392 48.54,196.023 L48.54,165.823 L314.9,165.823 L314.9,196.063 C314.658,269.432 255.229,328.844 181.86,329.063 Z" id="Shape"></path>
                        <path d="M247.34,46.5403818 C234.62,28.9403818 247.34,10.5403818 247.34,10.5403818 C249.471,7.52938179 248.758,3.36038179 245.746,1.22838179 C242.734,-0.90361821 238.566,-0.18961821 236.434,2.82138179 C236.388,2.88638179 236.343,2.95238179 236.299,3.01938179 C236.299,3.01938179 218.179,28.8593818 236.299,54.1393818 C249.019,71.7393818 236.299,90.1393818 236.299,90.1393818 C234.223,93.1883818 235.011,97.3423818 238.059,99.4193818 C241.108,101.495382 245.262,100.707382 247.339,97.6593818 C247.34,97.6603818 265.46,71.8203818 247.34,46.5403818 Z" id="Path"></path>
                        <path d="M187.22,46.5403818 C174.5,28.9403818 187.22,10.5403818 187.22,10.5403818 C189.242,7.45438179 188.379,3.31338179 185.293,1.29238179 C182.285,-0.67761821 178.257,0.0853817904 176.18,3.02038179 C176.18,3.02038179 158.06,28.8603818 176.18,54.1403818 C188.9,71.7403818 176.18,90.1403818 176.18,90.1403818 C174.104,93.1893818 174.892,97.3433818 177.94,99.4203818 C180.989,101.496382 185.143,100.708382 187.22,97.6603818 C187.22,97.6603818 205.34,71.8203818 187.22,46.5403818 Z" id="Path"></path>
                    </g>
                    <g id="marshmallow" transform="translate(120.409744, 161.674397) rotate(-225.000000) translate(-120.409744, -161.674397) translate(55.409744, 96.674397)" fill="#000000" fill-rule="nonzero">
                        <path d="M111.594,104.536 C118.911,96.413 124.392,87.497 127.213,79.036 C130.849,68.131 129.735,59.011 124.078,53.356 L76.326,5.599 C72.906,2.179 68.07,0.372 62.341,0.372 C51.302,0.372 37.38,7.079 25.147,18.089 L18.082,25.137 C10.766,33.26 5.286,42.176 2.466,50.637 C1.784,52.682 1.27,54.665 0.921,56.573 C0.572,58.481 0.388,60.317 0.369,62.066 C0.305,67.899 2.066,72.788 5.602,76.325 L53.352,124.073 C56.771,127.492 61.605,129.3 67.332,129.3 C78.366,129.3 92.288,122.593 104.528,111.582 L111.594,104.536 Z M62.342,10.352 C63.492,10.352 64.539,10.461 65.479,10.678 C67.045,11.04 68.314,11.701 69.27,12.657 C75.13,18.516 70.033,36.669 53.353,53.35 C42.283,64.419 29.027,71.572 19.582,71.572 C16.517,71.572 14.189,70.797 12.66,69.269 C12.482,69.091 12.314,68.9 12.156,68.699 C12.069,68.588 11.992,68.467 11.912,68.351 C11.848,68.258 11.779,68.169 11.719,68.072 C11.604,67.887 11.5,67.691 11.4,67.491 C11.383,67.458 11.363,67.427 11.347,67.393 C9.849,64.291 10.032,59.501 11.934,53.794 C14.287,46.736 18.919,39.203 25.151,32.208 L32.213,25.154 C42.445,16.06 53.907,10.352 62.342,10.352 Z M67.332,119.321 C64.266,119.321 61.937,118.546 60.409,117.017 L24.525,81.133 C35.78,79.334 49.075,71.74 60.409,60.406 C72.111,48.704 79.337,35.525 81.058,24.446 L117.021,60.413 C119.824,63.215 120.088,68.852 117.745,75.879 C114.981,84.17 109.078,93.119 101.123,101.081 C101.116,101.088 101.108,101.092 101.101,101.099 C101.094,101.106 101.09,101.114 101.084,101.12 C90.017,112.178 76.771,119.321 67.332,119.321 Z" id="Shape"></path>
                    </g>
                    <g id="marshmallow-copy" transform="translate(244.541446, 164.000000) rotate(-263.000000) translate(-244.541446, -164.000000) translate(179.541446, 99.000000)" fill="#000000" fill-rule="nonzero">
                        <path d="M111.594,104.536 C118.911,96.413 124.392,87.497 127.213,79.036 C130.849,68.131 129.735,59.011 124.078,53.356 L76.326,5.599 C72.906,2.179 68.07,0.372 62.341,0.372 C51.302,0.372 37.38,7.079 25.147,18.089 L18.082,25.137 C10.766,33.26 5.286,42.176 2.466,50.637 C1.784,52.682 1.27,54.665 0.921,56.573 C0.572,58.481 0.388,60.317 0.369,62.066 C0.305,67.899 2.066,72.788 5.602,76.325 L53.352,124.073 C56.771,127.492 61.605,129.3 67.332,129.3 C78.366,129.3 92.288,122.593 104.528,111.582 L111.594,104.536 Z M62.342,10.352 C63.492,10.352 64.539,10.461 65.479,10.678 C67.045,11.04 68.314,11.701 69.27,12.657 C75.13,18.516 70.033,36.669 53.353,53.35 C42.283,64.419 29.027,71.572 19.582,71.572 C16.517,71.572 14.189,70.797 12.66,69.269 C12.482,69.091 12.314,68.9 12.156,68.699 C12.069,68.588 11.992,68.467 11.912,68.351 C11.848,68.258 11.779,68.169 11.719,68.072 C11.604,67.887 11.5,67.691 11.4,67.491 C11.383,67.458 11.363,67.427 11.347,67.393 C9.849,64.291 10.032,59.501 11.934,53.794 C14.287,46.736 18.919,39.203 25.151,32.208 L32.213,25.154 C42.445,16.06 53.907,10.352 62.342,10.352 Z M67.332,119.321 C64.266,119.321 61.937,118.546 60.409,117.017 L24.525,81.133 C35.78,79.334 49.075,71.74 60.409,60.406 C72.111,48.704 79.337,35.525 81.058,24.446 L117.021,60.413 C119.824,63.215 120.088,68.852 117.745,75.879 C114.981,84.17 109.078,93.119 101.123,101.081 C101.116,101.088 101.108,101.092 101.101,101.099 C101.094,101.106 101.09,101.114 101.084,101.12 C90.017,112.178 76.771,119.321 67.332,119.321 Z" id="Shape"></path>
                    </g>
                    <polygon id="Path-2" fill="#FFFFFF" points="48.54 165.823 314.9 165.823 265.516697 257.848887 75.8867674 257.848887"></polygon>
                </g>
            </g>
        </g>
    </g>
</svg>