<?xml version="1.0" encoding="UTF-8"?>
<svg width="331px" height="323px" viewBox="0 0 331 323" version="1.1" xmlns="http://www.w3.org/2000/svg" xmlns:xlink="http://www.w3.org/1999/xlink">
    <!-- Generator: Sketch 55.2 (78181) - https://sketchapp.com -->
    <title>latte</title>
    <desc>Created with Sketch.</desc>
    <g id="Page-1" stroke="none" stroke-width="1" fill="none" fill-rule="evenodd">
        <g id="Artboard" transform="translate(-137.000000, -632.000000)" fill="#000000" fill-rule="nonzero">
            <g id="latte" transform="translate(137.000000, 632.000000)">
                <path d="M324.16,146.012 L282.28,146.012 L314.8,49.412 C315.963,45.922 314.085,42.149 310.6,40.972 L190.88,0.692 C189.236,0.142 187.441,0.257 185.88,1.012 L140,22.932 C137.378,23.179 135.149,24.952 134.32,27.452 L102.32,122.252 L45.08,122.252 C43.347,122.249 41.682,122.924 40.44,124.132 L4,159.532 C1.57,160.597 0,162.999 0,165.652 L0,292.012 C0,295.701 2.991,298.692 6.68,298.692 L133.08,298.692 C134.97,298.693 136.772,297.894 138.04,296.492 L152.72,282.452 L152.72,315.812 C152.72,319.501 155.711,322.492001 159.4,322.492001 L285.8,322.492001 C287.69,322.492001 289.492,321.694 290.76,320.292 L328.4,284.292 C329.944,283.024 330.84,281.13 330.84,279.132 L330.84,152.692 C330.84,149.002 327.849,146.012 324.16,146.012 Z M266.64,150.572 L262.64,162.332 L231.32,177.012 L265.84,74.772 L297.16,60.092 L266.64,150.572 Z M158.92,28.652 L189.2,14.212 L290.64,48.452 L260.04,62.812 L142.84,23.252 L158.92,28.652 Z M47.76,135.612 L97.84,135.612 L93.84,147.172 C92.677,150.662 94.555,154.435 98.04,155.612 L107.92,158.932 L23.76,158.932 L47.76,135.612 Z M126.4,285.412 L13.44,285.412 L13.44,172.812 L126.4,172.332 L126.4,285.412 Z M108.72,145.092 L113.44,131.572 C113.589,131.236 113.709,130.888 113.8,130.532 L145,38.012 L252.08,74.012 L215.84,181.412 L177.44,168.332 L177.04,168.332 L173.44,167.012 L108.72,145.092 Z M178.44,182.692 L176.44,182.692 L176.96,182.172 L178.44,182.692 Z M156.68,183.292 L155.96,183.292 L155.96,183.532 L155.96,183.852 L155.96,263.932 L143,276.332 L143,169.652 L162.76,177.412 L156.68,183.292 Z M279.08,309.092 L166.12,309.092 L166.12,196.572 L219.72,196.332 L220.36,196.332 L279.12,196.092 L279.08,309.092 Z M283.08,182.732 L250.6,182.732 L270.6,173.292 C272.356,172.554 273.711,171.097 274.32,169.292 L277.64,159.412 L307.4,159.412 L283.08,182.732 Z M317.44,276.212 L292.48,300.212 L292.48,192.212 L317.44,168.212 L317.44,276.212 Z" id="Shape"></path>
            </g>
        </g>
    </g>
</svg>