<?xml version="1.0" encoding="UTF-8"?>
<svg width="381px" height="323px" viewBox="0 0 381 323" version="1.1" xmlns="http://www.w3.org/2000/svg" xmlns:xlink="http://www.w3.org/1999/xlink">
    <!-- Generator: Sketch 55.2 (78181) - https://sketchapp.com -->
    <title>tea</title>
    <desc>Created with Sketch.</desc>
    <g id="Page-1" stroke="none" stroke-width="1" fill="none" fill-rule="evenodd">
        <g id="Artboard" transform="translate(-1733.000000, -154.000000)">
            <g id="tea" transform="translate(1733.000000, 154.000000)">
                <g id="hot-coffee" fill="#000000" fill-rule="nonzero">
                    <path d="M127.1,46.943 C114.38,29.343 127.1,10.943 127.1,10.943 C129.122,7.857 128.259,3.716 125.173,1.695 C122.165,-0.275 118.137,0.488 116.06,3.423 C116.06,3.423 97.94,29.263 116.06,54.543 C128.78,72.143 116.06,90.543 116.06,90.543 C113.984,93.592 114.772,97.746 117.82,99.823 C120.869,101.899 125.023,101.111 127.1,98.063 C127.1,98.063 145.22,72.223 127.1,46.943 Z" id="Path"></path>
                    <path d="M377.186,225.399 C388.448,194.728 372.713,160.735 342.042,149.473 C337.608,147.845 332.994,146.754 328.3,146.223 L328.3,140.903 C328.3,136.22 324.503,132.423 319.82,132.423 L43.82,132.423 C39.137,132.423 35.34,136.22 35.34,140.903 L35.34,176.023 C35.302,214.807 50.702,252.012 78.14,279.423 C90.42,291.709 104.774,301.73 120.54,309.023 L6.7,309.023 C3,309.023 0,312.023 0,315.723 C0,319.423 3,322.423 6.7,322.423 L357.02,322.423 C360.72,322.423 363.72,319.423 363.72,315.723 C363.72,312.023 360.72,309.023 357.02,309.023 L242.86,309.023 C266.215,298.203 286.344,281.479 301.26,260.503 L301.26,260.543 C331.931,271.805 365.924,256.07 377.186,225.399 Z M328.3,176.023 L328.3,159.743 C353.249,163.775 370.205,187.269 366.173,212.218 C362.141,237.167 338.647,254.123 313.698,250.091 C312.935,249.968 312.176,249.825 311.42,249.663 L308.74,248.983 C321.583,226.815 328.331,201.643 328.3,176.023 Z M181.86,309.063 L181.9,309.023 L181.58,309.023 C108.211,308.803 48.782,249.392 48.54,176.023 L48.54,145.823 L314.9,145.823 L314.9,176.063 C314.658,249.432 255.229,308.844 181.86,309.063 Z" id="Shape"></path>
                    <path d="M247.34,46.943 C234.62,29.343 247.34,10.943 247.34,10.943 C249.471,7.932 248.758,3.763 245.746,1.631 C242.734,-0.501 238.566,0.213 236.434,3.224 C236.388,3.289 236.343,3.355 236.299,3.422 C236.299,3.422 218.179,29.262 236.299,54.542 C249.019,72.142 236.299,90.542 236.299,90.542 C234.223,93.591 235.011,97.745 238.059,99.822 C241.108,101.898 245.262,101.11 247.339,98.062 C247.34,98.063 265.46,72.223 247.34,46.943 Z" id="Path"></path>
                    <path d="M187.22,46.943 C174.5,29.343 187.22,10.943 187.22,10.943 C189.242,7.857 188.379,3.716 185.293,1.695 C182.285,-0.275 178.257,0.488 176.18,3.423 C176.18,3.423 158.06,29.263 176.18,54.543 C188.9,72.143 176.18,90.543 176.18,90.543 C174.104,93.592 174.892,97.746 177.94,99.823 C180.989,101.899 185.143,101.111 187.22,98.063 C187.22,98.063 205.34,72.223 187.22,46.943 Z" id="Path"></path>
                </g>
                <g id="tea-bag" transform="translate(118.000000, 120.000000)">
                    <path d="M66,65 L66,125 C66,130.522847 61.5228475,135 56,135 L10,135 C4.4771525,135 6.76353751e-16,130.522847 0,125 L0,65 C-6.76353751e-16,59.4771525 4.4771525,55 10,55 L56,55 C61.5228475,55 66,59.4771525 66,65 Z" id="Path-Copy" fill="#000000"></path>
                    <path d="M33,0 C37.9705627,-9.13077564e-16 42,4.02943725 42,9 L42,56 L24,56 L24,9 C24,4.02943725 28.0294373,9.13077564e-16 33,0 Z" id="Rectangle" fill="#000000"></path>
                    <polygon id="Path" fill="#FFFFFF" points="50.0662478 72 50.0662478 118.842065 16 118.842065 16 72"></polygon>
                </g>
            </g>
        </g>
    </g>
</svg>